Patient4_TMGait_0pt5_01_right_29_EMG.mot
version=1
nRows=27
nColumns=33
inDegrees=no
endheader
time	1LAddLong	2LGlutMax	3LGlutMed	4LIliopsoas	5LSemiMemb	6LBicFemLong	7LRecFem	8LVastMed	9LVastLat	10LGasMed	11LTibAnt	12lTibPost	13LPeroneusLong	14LSol	15LExtDigLong	16LFlexDigLong	17RAddLong	18RGlutMax	19RGlutMed	20RIliopsoas	21RSemiMemb	22RBicFemLong	23RRecFem	24RVastMed	25RVastLat	26RGasMed	27RTibAnt	28RTibPost	29RPeroneusLong	30RSol	31RExtDigLong	32RFlexDigLong
39.01	0.018311	0.11871	0.033112	-0.010223	0.15488	-0.25543	0.15274	0.017242	-0.074768	0.017242	-0.027466	0.004425	0.02533	-0.065613	0.34393	0.002594	0.009613	-0.11551	-0.1387	0.077972	0.031128	0.49057	-0.13596	-0.041046	0.008392	-0.12421	0.07309	-0.23789	0.005188	-0.026245	-0.004578	-0.034637
39.011	0.014801	0.16052	0.082703	-0.009003	0.098114	-0.2063	0.15549	0.01358	-0.09491	0.040741	-0.07782	0.003204	0.069122	-0.076904	0.26413	0.002441	-0.018768	-0.15243	-0.15945	0.049744	0.074463	0.55252	-0.13397	-0.066681	-0.000916	-0.12146	0.088654	0.26184	0.22964	0.30991	-0.002136	-0.031891
39.012	0.014954	0.17822	0.062408	0.000305	0.024414	-0.16953	0.18494	-0.002747	-0.009155	0.033722	-0.093231	-0.002594	-0.021667	-0.10559	0.44983	-0.006256	-0.005035	-0.14465	-0.26901	0.071411	-0.058594	0.34363	-0.074921	-0.12329	-0.021362	-0.088654	0.057678	0.10696	0.7489	0.20401	-0.003662	-0.019836
39.013	0.007477	0.13062	0.049591	0.03418	-0.008392	-0.21179	0.21072	-0.018463	0.054169	0.042877	-0.088043	-0.004578	-0.103	-0.06546	-0.052795	-0.004425	0.021515	-0.13412	0.16632	0.057526	-0.11292	0.20355	-0.084534	-0.13031	-0.020447	-0.066528	0.021362	0.040894	0.93323	-0.084381	-0.001678	-0.018921
39.014	0.01297	0.10895	0.079041	0.014343	-0.061493	-0.15121	0.14938	-0.037842	0.071106	0.031891	-0.003052	-0.006714	-0.07843	-0.043945	0.07431	0.010071	0.019379	-0.18768	0.23407	-0.018311	0.044708	-0.18509	-0.17548	-0.029449	0.003204	-0.05249	-0.030823	0.023499	0.50568	-0.046997	-0.006561	-0.01709
39.015	0.003357	0.13168	0.099945	0.00412	-0.067291	-0.19348	0.096436	-0.04425	0.16205	0.026398	-0.036011	-0.00946	-0.036774	-0.00061	0.074921	0.002594	0.01358	-0.18677	-0.10483	-0.03418	0.047913	-0.38757	-0.20432	-0.028687	0.00824	0.030518	0.016632	-0.000916	-0.7515	0.12665	-0.003662	-0.011292
39.016	0.019226	0.16129	0.061493	0.004425	-0.031586	-0.12833	0.10407	-0.02655	0.17975	0.008392	-0.025024	-0.013275	0.038757	0.10346	0.1506	0.007782	0.010986	-0.22492	0.079346	-0.037842	0.033569	-0.49194	-0.13641	-0.02655	0.01709	0.077515	0.16235	0.000153	-1.6472	0.30228	0	-0.012817
39.017	0.031738	0.18829	0.041504	0.008392	0.079041	-0.03006	0.16571	-0.026245	0.12222	-0.007172	0.11475	-0.011444	0.033722	0.13123	0.041962	-0.000305	0.00061	-0.20767	-0.10223	-0.033417	-0.20599	-0.36591	-0.19531	0.025177	0.009918	0.027161	0.17319	-0.001373	-1.2308	0.57251	-0.000916	-0.01709
39.018	0.024872	0.16129	0.099792	0.00946	0.1297	0.061493	0.25238	-0.015869	0.096283	0.000763	0.055542	-0.008392	0.020905	0.095825	-0.093384	0.011749	-0.010529	-0.16373	-0.28625	-0.018158	-0.29907	0.065308	-0.17425	0.026093	0.026855	0.018921	0.089569	0.004578	-0.61996	0.49393	-0.003052	-0.014954
39.019	0.010223	0.19592	0.11673	-0.007172	0.043488	0.024414	0.13443	-0.003662	0.099792	0.00946	0.032806	-0.003662	0.019836	0.071259	-0.20584	0.007019	-0.001831	-0.19791	-0.29343	0.04715	-0.015106	0.082855	-0.13336	0.008392	0.002136	0.00946	-0.011292	-0.003815	0.59097	0.34515	-0.000305	-0.012207
39.02	0.004578	0.18936	0.078888	0.010376	-0.006256	-0.058899	0.042877	-0.011902	0.077667	0.032043	-0.050354	-0.00946	0.013275	0.019531	-0.36484	-0.000458	0.009003	-0.17929	0.1239	0.062408	0.40787	-0.26779	-0.12619	-0.01358	0.011902	-0.003662	-0.002136	-0.009003	0.68497	0.11688	-0.002289	-0.012817
39.021	-0.016174	0.17685	0.07019	0.02121	-0.019531	-0.035553	0.082703	-0.010834	-0.091248	0.062866	-0.059052	0.005951	0.019989	-0.05127	-0.39322	0.001526	0.013275	-0.16174	0.32486	0.086212	0.4776	-0.5368	-0.17197	0.039825	0.009766	0.00946	-0.007172	-0.003815	0.63614	-0.081024	0	-0.024719
39.022	-0.035553	0.19577	0.019836	0.011749	-0.059204	-0.029755	0.15747	-0.010376	-0.242	0.039368	-0.027008	0.002594	0.013123	-0.061035	-0.2594	0.00351	0.022278	-0.22568	0.13779	0.050507	0.1741	-0.3717	-0.16922	0.006714	0.010681	-0.021057	-0.02594	-0.009155	0.32867	-0.1326	0.001373	-0.020447
39.023	-0.022278	0.17929	0.031738	0.020447	-0.11429	0.033722	0.17059	-0.001678	-0.27863	0.040436	-0.06546	0.012665	0.03418	0.011597	-0.069885	0.004425	0.037689	-0.23102	0.080109	-0.000458	0.042267	-0.19806	-0.15381	-0.056305	-0.010223	-0.040588	-0.011902	-0.017242	0.30334	-0.27481	-0.001678	-0.030975
39.024	-0.018616	0.16037	0.003967	0.016022	-0.16586	0.046539	0.15137	0.004425	-0.19577	0.036316	-0.056	0.009766	0.037079	0.032349	0.024719	0.003815	0.014648	-0.19821	-0.094299	0.015564	0.095215	-0.28854	-0.15289	-0.051422	-0.004883	-0.028229	0.033875	-0.02655	0.21362	-0.079803	-0.00061	-0.025177
39.025	0.007782	0.15915	-0.009613	-0.000153	-0.14038	-0.06134	0.14771	0	-0.097198	0.047302	-0.018463	0.018311	0.046997	-0.005951	0.057526	-0.000153	0.009155	-0.19638	-0.022278	0.018311	0.10223	-0.21347	-0.15915	-0.069733	-0.025024	-0.018158	0.058289	-0.031433	0.44052	0.37018	-0.000153	-0.02655
39.026	0.031891	0.15488	-0.003815	0.012207	0.072784	-0.11124	0.12772	-0.009766	-0.048828	0.04425	0.009766	0.018921	0.037384	-0.008545	0.046844	0.011749	0.002136	-0.23377	0.035553	0.032043	0.13168	0.021667	-0.16815	-0.081177	-0.016937	0.02533	0.06958	-0.046692	-0.39108	0.28107	-0.002594	-0.029449
39.027	0.044403	0.1651	0.020752	0.01358	0.16205	-0.064392	0.08728	-0.016479	0.010529	0.034485	0.041809	0.022736	-0.030823	-0.018005	0.051575	0.027313	-0.006409	-0.19623	0.12909	0.079346	-0.13107	0.14877	-0.18158	-0.045624	-0.02243	0.027618	0.037079	-0.072632	-0.86899	-0.46112	-0.003204	-0.026855
39.028	0.038452	0.076447	0.032501	-0.008698	0.15823	0.030975	0.10468	-0.026245	0.039825	0.030975	0.045776	0.020752	-0.17914	-0.041504	0.047913	0.026093	-0.00824	-0.2301	0.11963	0.097198	-0.19394	0.29098	-0.15427	-0.046844	0.023499	0.038757	0.016174	-0.097198	-0.55649	-1.1694	-0.002594	-0.031433
39.029	0.032959	0.11047	0.026855	0.011139	0.088654	0.045929	0.075836	-0.013885	0.077362	0.043945	0.024567	0.028229	-0.092621	-0.019379	0.067749	0.05722	0.009918	-0.22598	0.023956	0.024567	0.072784	0.32745	-0.076141	-0.049286	0	-0.022583	-0.041504	-0.036926	-0.27176	-1.1465	-0.000916	-0.027924
39.03	0.029144	0.10071	0.020294	0.023041	-0.000305	0.067139	0.061951	-0.001984	0.055847	0.037537	0.009766	0.02594	0.35843	0.014496	0.052338	0.097656	-0.006256	-0.20325	-0.06012	-0.053406	0.18127	0.28564	-0.12009	-0.050201	0	-0.028687	-0.040588	0.031738	0.060883	-0.052338	0.001678	-0.02533
39.031	0.016937	0.057831	0.016174	0.031128	-0.027924	0.078278	0.099487	-0.004578	-0.007172	0.032043	-0.01358	0.023499	0.16708	0.035706	0.02533	0.11765	-0.023804	-0.23163	-0.054779	-0.073395	0.12222	0.16037	-0.11978	-0.089264	-0.001221	-0.039825	-0.002289	0.051575	0.38254	0.61996	-0.001526	-0.019531
39.032	0.010376	0.059662	0.022278	0.014954	-0.024109	0.097351	0.1355	0	-0.065918	0.039063	0.00885	0.031738	-0.018768	0.079193	0.016632	0.13153	-0.028839	-0.2565	-0.048218	-0.04303	0.033569	0.15472	-0.14206	-0.07309	0.001526	-0.035858	0.01236	-0.051575	0.39093	0.66834	-0.001984	-0.023651
39.033	-0.001984	0.074768	-0.001221	0.008545	-0.011749	0.2005	0.14847	-0.005951	-0.063934	0.010376	0.017395	0.027313	-0.069733	0.14801	0.021667	0.10178	-0.03891	-0.29556	-0.058136	-0.089569	0.09903	0.15106	-0.12863	-0.12085	-0.009308	-0.032806	0	-0.52765	0.35202	0.88348	-0.002289	-0.01709
39.034	-0.008087	0.074158	-0.006561	0.005493	-0.007324	0.13779	0.11734	-0.006561	0.004425	0.028534	0.033264	0.028381	-0.12863	0.13123	0.014801	0.074463	-0.007019	-0.26321	0.000458	-0.17242	0.1506	0.10422	-0.15121	-0.10773	-0.004883	0.003662	0.006104	-0.015106	0.23331	0.27878	-0.002594	-0.02243
39.035	-0.011902	0.11337	-0.045166	0.012054	-0.02121	0.12482	0.099487	-0.004425	0.060425	0.044861	0.072327	0.02121	-0.12772	0.13001	0.014038	0.041351	-0.028992	-0.27847	0.046539	-0.085754	-0.17746	0.12421	-0.2327	-0.044098	0.015869	0.010529	0.049133	0.57953	0.18143	0.11993	-0.001831	-0.022125
39.036	-0.00473	0.16007	-0.079041	0.023346	0.019684	0.085754	0.084839	0.00061	0.049286	0.013123	0.068512	0.020447	-0.018921	0.2536	0.060577	-0.00061	-0.062561	-0.25375	0.12817	-0.018768	-0.19073	0.001678	-0.23514	0.019684	0.033569	0.008545	0.002441	0.31693	0.30914	0.38696	-0.001373	-0.014954
